<?xml version="1.0" standalone="no"?>
<!DOCTYPE svg PUBLIC "-//W3C//DTD SVG 20010904//EN"
 "http://www.w3.org/TR/2001/REC-SVG-20010904/DTD/svg10.dtd">
<svg version="1.0" xmlns="http://www.w3.org/2000/svg"
 width="152.000000pt" height="152.000000pt" viewBox="0 0 152.000000 152.000000"
 preserveAspectRatio="xMidYMid meet">
<metadata>
Created by potrace 1.11, written by Peter Selinger 2001-2013
</metadata>
<g transform="translate(0.000000,152.000000) scale(0.100000,-0.100000)"
fill="#000000" stroke="none">
<path d="M663 1483 c-7 -2 -13 -17 -13 -31 0 -15 -4 -33 -9 -41 -8 -12 -13
-12 -35 2 -38 25 -54 21 -61 -15 -14 -72 -13 -71 -46 -44 -36 31 -88 43 -100
25 -14 -22 -11 -51 12 -120 12 -35 23 -75 25 -88 4 -21 2 -23 -23 -16 -15 4
-51 10 -79 14 -28 4 -64 17 -81 29 -35 25 -86 34 -119 22 -36 -14 -35 -54 3
-117 18 -31 32 -62 29 -68 -2 -7 -31 -14 -64 -17 -32 -3 -68 -12 -80 -19 -55
-34 3 -128 103 -169 59 -24 64 -30 39 -51 -34 -28 -33 -51 5 -91 20 -21 52
-43 71 -49 19 -6 62 -24 94 -40 67 -33 92 -35 142 -14 19 8 41 12 48 9 35 -13
106 -150 108 -207 1 -27 -2 -93 -15 -307 l-2 -25 110 -1 c61 -1 129 1 153 3
42 5 43 6 38 37 -3 18 -8 59 -12 91 -3 32 -8 68 -10 79 -10 50 -5 236 7 258
17 33 17 33 39 13 22 -20 71 -22 128 -6 36 11 64 8 113 -13 30 -12 41 -12 89
3 61 18 74 42 46 83 -25 35 -19 45 25 46 22 1 53 9 68 18 25 15 71 74 71 93 0
15 -24 30 -60 36 -62 11 -61 35 2 40 41 4 65 30 85 92 21 67 14 76 -68 79 -33
1 -62 4 -64 6 -2 2 -5 38 -6 81 -2 73 -4 79 -28 91 -14 7 -41 11 -58 9 -28 -3
-33 -1 -33 16 0 27 -42 58 -109 78 -31 9 -60 20 -64 23 -9 8 -157 -67 -157
-79 0 -7 -43 -31 -55 -31 -3 0 -5 10 -5 23 0 44 -22 101 -51 129 -16 16 -29
35 -29 41 -1 22 -84 101 -102 96 -2 0 -9 -3 -15 -6z"/>
</g>
</svg>
